<svg xmlns="http://www.w3.org/2000/svg" width="512" height="512" viewBox="0 0 64 64"><path fill="#30aee5" d="m35 26h22v15h-22z"/><path fill="#9ddeed" d="m35 7h22v15h-22z"/><path fill="#30aee5" d="m8 26h22v15h-22z"/><path fill="#1e9bc6" d="m8 26h11v15h-11z"/><path fill="#1e9bc6" d="m35 26h11v15h-11z"/><path fill="#9ddeed" d="m8 7h22v15h-22z"/><path fill="#5bd1dd" d="m8 7h11v15h-11z"/><path fill="#5bd1dd" d="m35 7h11v15h-11z"/><path fill="#e87967" d="m16 7h6v6h-6z"/><path fill="#4278ba" d="m8 45h22v15h-22z"/><path fill="#4278ba" d="m35 45h22v15h-22z"/><path fill="#2e63af" d="m8 45h11v15h-11z"/><path fill="#2e63af" d="m35 45h11v15h-11z"/><path fill="#e87967" d="m16 26h6v6h-6z"/><path fill="#e87967" d="m16 45h6v6h-6z"/><path fill="#e87967" d="m43 26h6v6h-6z"/><path fill="#e87967" d="m43 7h6v6h-6z"/><path fill="#e87967" d="m43 45h6v6h-6z"/><g fill="#e54e35"><path d="m43 45h3v6h-3z"/><path d="m43 26h3v6h-3z"/><path d="m43 7h3v6h-3z"/><path d="m16 45h3v6h-3z"/><path d="m16 26h3v6h-3z"/><path d="m16 7h3v6h-3z"/></g><path fill="#3f4e56" d="m62 24v-2h-58v-20h-2v59a.99974.99974 0 0 0 1 1h59v-2h-58v-17h58v-2h-58v-17z"/></svg>